<svg width="25" height="25" viewBox="0 0 25 25" fill="none" xmlns="http://www.w3.org/2000/svg">
<path d="M13.6398 12.5109L20.0766 6.10936C20.3852 5.80389 20.3852 5.30936 20.0766 5.00468C19.7688 4.69921 19.2688 4.69921 18.9609 5.00468L12.5297 11.4008L6.03907 4.90936C5.73125 4.60077 5.23125 4.60077 4.92344 4.90936C4.61563 5.21874 4.61563 5.71952 4.92344 6.02811L11.4094 12.5148L4.9 18.9883C4.59219 19.2937 4.59219 19.7883 4.9 20.093C5.20782 20.3984 5.70782 20.3984 6.01563 20.093L12.5195 13.625L18.9844 20.0906C19.2922 20.3992 19.7922 20.3992 20.1 20.0906C20.4078 19.7812 20.4078 19.2805 20.1 18.9719L13.6398 12.5109Z" fill="#F5AD8F"/>
</svg>
