<svg width="300" height="300" viewBox="0 0 300 300" fill="none" xmlns="http://www.w3.org/2000/svg">
<rect width="300" height="300" fill="#292D3C"/>
<path d="M82.6911 222.4C83.0111 222.4 83.1711 222.56 83.1711 222.88V225.904C83.1711 226.224 83.0111 226.384 82.6911 226.384H76.4031C76.2751 226.384 76.2111 226.448 76.2111 226.576V255.52C76.2111 255.84 76.0511 256 75.7311 256H72.0831C71.7631 256 71.6031 255.84 71.6031 255.52V226.576C71.6031 226.448 71.5391 226.384 71.4111 226.384H65.4591C65.1391 226.384 64.9791 226.224 64.9791 225.904V222.88C64.9791 222.56 65.1391 222.4 65.4591 222.4H82.6911ZM92.0432 256.384C89.5472 256.384 87.5632 255.696 86.0912 254.32C84.6512 252.912 83.9312 251.056 83.9312 248.752V238.816C83.9312 236.544 84.6672 234.704 86.1392 233.296C87.6112 231.888 89.5792 231.184 92.0432 231.184C94.5392 231.184 96.5232 231.888 97.9952 233.296C99.4672 234.704 100.203 236.544 100.203 238.816V248.752C100.203 251.056 99.4672 252.912 97.9952 254.32C96.5232 255.696 94.5392 256.384 92.0432 256.384ZM92.0432 252.352C93.0672 252.352 93.9152 252 94.5872 251.296C95.2592 250.56 95.5952 249.6 95.5952 248.416V239.104C95.5952 237.952 95.2592 237.008 94.5872 236.272C93.9152 235.536 93.0672 235.168 92.0432 235.168C91.0192 235.168 90.1712 235.536 89.4992 236.272C88.8592 237.008 88.5392 237.952 88.5392 239.104V248.416C88.5392 249.6 88.8592 250.56 89.4992 251.296C90.1712 252 91.0192 252.352 92.0432 252.352ZM115.747 222.88C115.747 222.56 115.907 222.4 116.227 222.4H119.875C120.195 222.4 120.355 222.56 120.355 222.88V255.52C120.355 255.84 120.195 256 119.875 256H116.227C115.907 256 115.747 255.84 115.747 255.52V254.752C115.747 254.688 115.715 254.64 115.651 254.608C115.619 254.576 115.571 254.592 115.507 254.656C114.899 255.232 114.211 255.664 113.443 255.952C112.675 256.24 111.907 256.384 111.139 256.384C109.027 256.384 107.347 255.696 106.099 254.32C104.883 252.912 104.275 251.072 104.275 248.8V238.816C104.275 236.448 104.883 234.592 106.099 233.248C107.347 231.872 109.027 231.184 111.139 231.184C111.907 231.184 112.675 231.328 113.443 231.616C114.211 231.904 114.899 232.336 115.507 232.912C115.571 232.976 115.619 232.992 115.651 232.96C115.715 232.928 115.747 232.88 115.747 232.816V222.88ZM112.339 252.4C113.235 252.4 113.987 252.112 114.595 251.536C115.235 250.928 115.619 250.144 115.747 249.184V238.384C115.619 237.424 115.235 236.656 114.595 236.08C113.987 235.472 113.235 235.168 112.339 235.168C111.315 235.168 110.467 235.536 109.795 236.272C109.155 237.008 108.835 237.952 108.835 239.104V248.464C108.835 249.616 109.155 250.56 109.795 251.296C110.467 252.032 111.315 252.4 112.339 252.4ZM133.059 256.384C130.563 256.384 128.579 255.696 127.107 254.32C125.667 252.912 124.947 251.056 124.947 248.752V238.816C124.947 236.544 125.683 234.704 127.155 233.296C128.627 231.888 130.595 231.184 133.059 231.184C135.555 231.184 137.539 231.888 139.011 233.296C140.483 234.704 141.219 236.544 141.219 238.816V248.752C141.219 251.056 140.483 252.912 139.011 254.32C137.539 255.696 135.555 256.384 133.059 256.384ZM133.059 252.352C134.083 252.352 134.931 252 135.603 251.296C136.275 250.56 136.611 249.6 136.611 248.416V239.104C136.611 237.952 136.275 237.008 135.603 236.272C134.931 235.536 134.083 235.168 133.059 235.168C132.035 235.168 131.187 235.536 130.515 236.272C129.875 237.008 129.555 237.952 129.555 239.104V248.416C129.555 249.6 129.875 250.56 130.515 251.296C131.187 252 132.035 252.352 133.059 252.352ZM168.964 256C168.676 256 168.5 255.856 168.436 255.568L167.38 250.048C167.38 249.984 167.348 249.936 167.284 249.904C167.252 249.872 167.204 249.856 167.14 249.856H159.316C159.252 249.856 159.188 249.872 159.124 249.904C159.092 249.936 159.076 249.984 159.076 250.048L158.068 255.568C158.036 255.856 157.86 256 157.54 256H153.892C153.732 256 153.604 255.952 153.508 255.856C153.444 255.76 153.428 255.632 153.46 255.472L160.612 222.832C160.676 222.544 160.852 222.4 161.14 222.4H165.412C165.732 222.4 165.908 222.544 165.94 222.832L173.14 255.472V255.568C173.14 255.856 172.996 256 172.708 256H168.964ZM159.892 246.016C159.892 246.144 159.94 246.208 160.036 246.208H166.42C166.516 246.208 166.564 246.144 166.564 246.016L163.3 228.976C163.268 228.912 163.236 228.88 163.204 228.88C163.172 228.88 163.14 228.912 163.108 228.976L159.892 246.016ZM185.742 231.184C187.822 231.184 189.47 231.888 190.686 233.296C191.934 234.672 192.558 236.496 192.558 238.768V248.752C192.558 251.12 191.934 252.992 190.686 254.368C189.47 255.712 187.822 256.384 185.742 256.384C184.974 256.384 184.19 256.24 183.39 255.952C182.622 255.664 181.934 255.216 181.326 254.608C181.166 254.512 181.086 254.544 181.086 254.704V264.688C181.086 265.008 180.926 265.168 180.606 265.168H176.958C176.638 265.168 176.478 265.008 176.478 264.688V232.048C176.478 231.728 176.638 231.568 176.958 231.568H180.606C180.926 231.568 181.086 231.728 181.086 232.048V232.816C181.086 232.88 181.118 232.928 181.182 232.96C181.246 232.96 181.31 232.928 181.374 232.864C181.982 232.288 182.67 231.872 183.438 231.616C184.206 231.328 184.974 231.184 185.742 231.184ZM187.998 239.104C187.998 237.952 187.662 237.008 186.99 236.272C186.35 235.536 185.518 235.168 184.494 235.168C183.502 235.168 182.686 235.536 182.046 236.272C181.406 237.008 181.086 237.952 181.086 239.104V248.464C181.086 249.616 181.406 250.56 182.046 251.296C182.686 252.032 183.502 252.4 184.494 252.4C185.518 252.4 186.35 252.032 186.99 251.296C187.662 250.56 187.998 249.616 187.998 248.464V239.104ZM206.602 231.184C208.682 231.184 210.33 231.888 211.546 233.296C212.794 234.672 213.418 236.496 213.418 238.768V248.752C213.418 251.12 212.794 252.992 211.546 254.368C210.33 255.712 208.682 256.384 206.602 256.384C205.834 256.384 205.05 256.24 204.25 255.952C203.482 255.664 202.794 255.216 202.186 254.608C202.026 254.512 201.946 254.544 201.946 254.704V264.688C201.946 265.008 201.786 265.168 201.466 265.168H197.818C197.498 265.168 197.338 265.008 197.338 264.688V232.048C197.338 231.728 197.498 231.568 197.818 231.568H201.466C201.786 231.568 201.946 231.728 201.946 232.048V232.816C201.946 232.88 201.978 232.928 202.042 232.96C202.106 232.96 202.17 232.928 202.234 232.864C202.842 232.288 203.53 231.872 204.298 231.616C205.066 231.328 205.834 231.184 206.602 231.184ZM208.858 239.104C208.858 237.952 208.522 237.008 207.85 236.272C207.21 235.536 206.378 235.168 205.354 235.168C204.362 235.168 203.546 235.536 202.906 236.272C202.266 237.008 201.946 237.952 201.946 239.104V248.464C201.946 249.616 202.266 250.56 202.906 251.296C203.546 252.032 204.362 252.4 205.354 252.4C206.378 252.4 207.21 252.032 207.85 251.296C208.522 250.56 208.858 249.616 208.858 248.464V239.104Z" fill="white"/>
<path d="M146.258 116.405L126.258 79.7383C125.678 78.6673 124.552 78 123.334 78H83.3344C82.1169 78 80.9906 78.6673 80.4112 79.7383L60.4112 116.405C59.8643 117.398 59.8643 118.602 60.4112 119.595L80.4112 156.262C80.9906 157.333 82.1169 158 83.3344 158H123.334C124.552 158 125.678 157.333 126.258 156.262L146.258 119.595C146.804 118.602 146.804 117.398 146.258 116.405ZM121.355 151.333H85.3135L67.1299 118L85.3135 84.6667H121.355L139.539 118L121.355 151.333Z" fill="#56A3A6"/>
<path d="M81.4461 116.405C80.5737 114.787 78.549 114.198 76.9279 115.074C75.3133 115.956 74.7143 117.98 75.5998 119.595L88.3276 142.928C88.9266 144.038 90.0724 144.667 91.2508 144.667C91.7912 144.667 92.338 144.536 92.8459 144.26C94.4604 143.378 95.0594 141.353 94.174 139.738L81.4461 116.405Z" fill="#56A3A6"/>
<path d="M115.417 91.3333H91.2508C89.4084 91.3333 87.9175 92.8242 87.9175 94.6667C87.9175 96.5091 89.4084 98 91.2508 98H115.417C117.26 98 118.751 96.5091 118.751 94.6667C118.751 92.8242 117.26 91.3333 115.417 91.3333Z" fill="#56A3A6"/>
<path d="M153.77 112.987C154.369 114.025 155.47 114.667 156.668 114.667H196.668C197.865 114.667 198.966 114.025 199.565 112.987L219.565 77.987C220.144 76.9616 220.144 75.7051 219.565 74.6797L199.565 39.6797C198.966 38.6413 197.865 38 196.668 38H156.668C155.47 38 154.369 38.6413 153.77 39.6797L133.77 74.6797C133.191 75.7051 133.191 76.9616 133.77 77.987L153.77 112.987ZM158.601 44.6667H194.734L212.826 76.3333L194.734 108H158.601L140.509 76.3333L158.601 44.6667Z" fill="#EF8354"/>
<path d="M199.565 123.013C198.966 121.975 197.865 121.333 196.668 121.333H156.668C155.47 121.333 154.369 121.975 153.77 123.013L133.77 158.013C133.191 159.038 133.191 160.295 133.77 161.32L153.77 196.32C154.369 197.359 155.47 198 156.668 198H196.668C197.865 198 198.966 197.359 199.565 196.32L219.565 161.32C220.144 160.295 220.144 159.038 219.565 158.013L199.565 123.013ZM194.734 191.333H158.601L140.509 159.667L158.601 128H194.734L212.826 159.667L194.734 191.333Z" fill="#9AD4D6"/>
<path d="M188.927 178H164.408C162.566 178 161.075 179.491 161.075 181.333C161.075 183.176 162.566 184.667 164.408 184.667H188.927C190.769 184.667 192.26 183.176 192.26 181.333C192.26 179.491 190.769 178 188.927 178Z" fill="#9AD4D6"/>
<path d="M187.273 135.106C185.671 136.021 185.118 138.055 186.03 139.654L198.412 161.32C199.031 162.398 200.157 163 201.309 163C201.876 163 202.442 162.86 202.963 162.561C204.565 161.646 205.118 159.611 204.207 158.013L191.824 136.346C190.899 134.738 188.855 134.188 187.273 135.106Z" fill="#9AD4D6"/>
</svg>
