<svg width="25" height="23" viewBox="0 0 25 23" fill="none" xmlns="http://www.w3.org/2000/svg">
<path d="M11.3992 10.0484C11.7093 9.73837 11.7093 9.2345 11.3992 8.92442C11.0891 8.61434 10.5853 8.61434 10.2752 8.92442L6.06977 13.1298C5.35271 13.8469 4.96512 14.7771 4.96512 15.7849C4.96512 16.7926 5.35271 17.7229 6.06977 18.4399C7.54264 19.9128 9.92636 19.9128 11.3798 18.4399L20.876 8.9438C21.8643 7.95543 22.407 6.6376 22.407 5.24225C22.407 3.8469 21.8643 2.52907 20.876 1.5407C18.8217 -0.513566 15.5078 -0.513566 13.4535 1.5407L3.97674 11.0174C2.69767 12.2965 2 13.9826 2 15.7849C2 17.5872 2.69767 19.2926 3.97674 20.5523C5.25581 21.8314 6.94186 22.5291 8.74419 22.5291C10.5465 22.5291 12.2519 21.8314 13.5116 20.5523L17.7171 16.3469C18.0271 16.0368 18.0271 15.5329 17.7171 15.2229C17.407 14.9128 16.9031 14.9128 16.593 15.2229L12.3876 19.4283C11.4186 20.3973 10.1202 20.9399 8.74419 20.9399C7.36822 20.9399 6.06977 20.3973 5.10078 19.4283C4.13178 18.4593 3.58915 17.1609 3.58915 15.7849C3.58915 14.4089 4.13178 13.1105 5.10078 12.1415L14.5775 2.66473C15.2752 1.96705 16.186 1.59884 17.155 1.59884C18.124 1.59884 19.0543 1.98643 19.7326 2.66473C20.4302 3.3624 20.7984 4.27326 20.7984 5.24225C20.7984 6.21124 20.4109 7.14147 19.7326 7.81977L10.2364 17.3159C9.4031 18.1492 8.02713 18.1492 7.17442 17.3159C6.76744 16.9089 6.53488 16.3663 6.53488 15.7849C6.53488 15.2035 6.76744 14.6609 7.17442 14.2539L11.3992 10.0484V10.0484Z" fill="#9AD4D6"/>
</svg>
