<svg width="25" height="25" viewBox="0 0 25 25" fill="none" xmlns="http://www.w3.org/2000/svg">
<path d="M10 18.7403C12.1318 18.7403 14.0698 17.9845 15.5814 16.7054L22.3643 23.4884C22.5194 23.6434 22.7132 23.7209 22.9264 23.7209C23.1395 23.7209 23.3333 23.6434 23.4884 23.4884C23.7985 23.1783 23.7985 22.6744 23.4884 22.3644L16.7054 15.5814C17.9651 14.0698 18.7403 12.1124 18.7403 10C18.7403 5.17443 14.8256 1.2597 10 1.2597C5.1938 1.2597 1.25969 5.19381 1.25969 10C1.25969 14.8256 5.1938 18.7403 10 18.7403ZM10 2.84885C13.9535 2.84885 17.1512 6.06591 17.1512 10C17.1512 13.9535 13.9535 17.1512 10 17.1512C6.04651 17.1512 2.84884 13.9341 2.84884 10C2.84884 6.06591 6.06589 2.84885 10 2.84885Z" fill="#292D3C"/>
</svg>
